<?xml version="1.0" standalone="no"?><!DOCTYPE svg PUBLIC "-//W3C//DTD SVG 1.1//EN" "http://www.w3.org/Graphics/SVG/1.1/DTD/svg11.dtd"><svg t="1613976246452" class="icon" viewBox="0 0 1824 1024" version="1.1" xmlns="http://www.w3.org/2000/svg" p-id="7714" width="114" height="64" xmlns:xlink="http://www.w3.org/1999/xlink"><defs><style type="text/css"></style></defs><path d="M1275.345455 104.261818h-0.037237a39.098182 39.098182 0 1 1-0.018618-78.196363 39.098182 39.098182 0 0 1 0.055855 78.196363m0-104.261818a65.163636 65.163636 0 1 0 0 130.327273 65.163636 65.163636 0 0 0 0-130.327273M288.581818 569.716364h-0.037236a39.098182 39.098182 0 1 1-0.037237-78.196364 39.098182 39.098182 0 0 1 0.074473 78.196364m0-104.261819a65.163636 65.163636 0 1 0 0 130.327273 65.163636 65.163636 0 0 0 0-130.327273M363.054545 93.090909a13.032727 13.032727 0 0 1 13.032728 13.032727v39.098182h39.098182a13.032727 13.032727 0 0 1 0 26.065455h-39.098182v39.098182a13.032727 13.032727 0 0 1-26.065455 0V171.287273h-39.098182a13.032727 13.032727 0 0 1 0-26.065455h39.098182V106.123636a13.032727 13.032727 0 0 1 13.032727-13.032727M1541.026909 637.281745a14.596655 14.596655 0 0 1 0 20.628946L1510.064873 688.872727l30.962036 30.962037a14.596655 14.596655 0 1 1-20.647564 20.628945L1489.454545 709.501673l-30.9248 30.943418a14.596655 14.596655 0 1 1-20.647563-20.628946L1468.788364 688.872727l-30.906182-30.9248a14.578036 14.578036 0 1 1 20.610327-20.666182L1489.454545 668.243782l30.9248-30.9248a14.596655 14.596655 0 0 1 20.647564 0v-0.018618zM601.106618 1005.381818c7.354182 0 13.293382 4.170473 13.293382 9.309091s-5.957818 9.309091-13.293382 9.309091H255.348364c-7.354182 0-13.312-4.170473-13.312-9.309091s5.957818-9.309091 13.312-9.309091h345.739636zM768.930909 1005.381818c7.205236 0 13.032727 4.170473 13.032727 9.309091s-5.827491 9.309091-13.032727 9.309091h-104.261818c-7.186618 0-13.032727-4.170473-13.032727-9.309091s5.846109-9.309091 13.032727-9.309091h104.261818zM1661.989236 1005.381818c7.540364 0 13.647127 4.170473 13.647128 9.309091s-6.106764 9.309091-13.647128 9.309091H870.102109c-7.558982 0-13.665745-4.170473-13.665745-9.309091s6.106764-9.309091 13.665745-9.309091h791.887127zM1810.971927 856.436364c7.503127 0 13.609891 4.170473 13.609891 9.309091s-6.106764 9.309091-13.609891 9.30909H1614.754909c-7.521745 0-13.609891-4.170473-13.609891-9.30909s6.088145-9.309091 13.609891-9.309091H1810.990545zM1457.375418 856.436364c7.447273 0 13.460945 4.170473 13.460946 9.309091s-6.032291 9.309091-13.460946 9.30909H13.460945c-7.447273 0-13.460945-4.170473-13.460945-9.30909s6.013673-9.309091 13.460945-9.309091h1443.914473z" fill="#CECECE" p-id="7715"></path><path d="M1067.976145 707.3792H1040.756364v24.054691c0 26.307491-19.828364 46.601309-45.521455 46.601309h-27.182545c0 5.268945-2.923055 11.264-6.609455 15.788218a21.801891 21.801891 0 0 1-31.557818 0l-14.708364-15.788218H658.134109c-25.488291 0-43.324509-6.013673-53.527273-18.041018A51.870255 51.870255 0 0 1 595.781818 732.178618V266.202764c0-26.307491 19.828364-46.601309 45.521455-46.601309h28.634763v-24.054691C669.938036 169.239273 689.7664 148.945455 715.459491 148.945455h356.109964C1097.262545 148.945455 1117.090909 169.239273 1117.090909 195.546764V660.759273c0 10.537891-3.667782 20.293818-8.8064 27.815563-8.471273 12.530036-21.894982 18.804364-40.308364 18.804364zM1052.318255 688.872727h19.0464C1086.743273 688.872727 1098.472727 676.845382 1098.472727 661.075782V195.360582C1098.472727 179.590982 1086.743273 167.563636 1071.364655 167.563636H715.9808C700.602182 167.563636 688.872727 179.590982 688.872727 195.360582v24.017454h309.210764c25.655855 0 45.428364 20.293818 45.428364 46.582691V688.128h8.8064V688.872727z m-217.9072-21.578472a74.528582 74.528582 0 0 0 0-105.78851A74.286545 74.286545 0 0 0 781.963636 539.927273c-19.586327 0-39.154036 7.652073-52.447418 21.578472a74.528582 74.528582 0 0 0 0 105.78851A74.286545 74.286545 0 0 0 781.963636 688.872727c18.878836 0 37.757673-7.652073 52.447419-21.578472z m-92.16-89.832728c1.750109 0.800582 3.500218 4.021527 1.750109 7.261091-7.856873 12.064582-8.713309 28.169309-3.4816 41.053091 0.875055 3.220945 0 4.840727-3.500219 7.242473h-1.73149c-1.750109 0-4.375273-0.800582-5.250328-3.220946-6.106764-16.104727-5.213091-34.629818 3.500218-49.915345 1.750109-2.420364 5.231709-3.220945 8.71331-2.420364zM1024 734.859636V269.796073c0-15.750982-11.710836-27.759709-27.070836-27.759709H641.470836c-15.36 0-27.070836 12.008727-27.070836 27.741091V734.114909c0 15.750982 11.710836 27.741091 27.070836 27.741091h257.452219l-25.6-25.506909a22.676945 22.676945 0 0 1-5.12-23.998836l-22.676946-23.998837a92.346182 92.346182 0 0 1-61.44 23.272727c-26.326109 0-49.729164-10.519273-68.756945-28.523054a100.482327 100.482327 0 0 1 0-140.269382c18.301673-18.748509 42.430836-28.485818 68.756945-28.485818 26.344727 0 49.747782 10.482036 68.756946 28.485818 35.113891 36.007564 37.310836 94.524509 6.590836 133.5296l23.403054 23.998836c8.043055-2.997527 16.812218-1.489455 23.403055 5.250328L961.833891 763.345455h35.095273A28.523055 28.523055 0 0 0 1024 734.859636zM697.250909 316.509091c-4.896582 0-8.378182-3.872582-8.378182-9.309091 0-5.436509 3.500218-9.309091 8.378182-9.309091h150.807273c4.896582 0 8.378182 3.872582 8.378182 9.309091 0 5.436509-3.500218 9.309091-8.378182 9.309091h-150.807273z m224.944873 55.854545c5.082764 0 8.713309 3.872582 8.713309 9.309091 0 5.436509-3.630545 9.309091-8.713309 9.309091H716.204218c-5.082764 0-8.713309-3.872582-8.713309-9.309091 0-5.436509 3.630545-9.309091 8.713309-9.309091h205.991564z m-130.513455 55.854546c5.213091 0 8.899491 3.872582 8.899491 9.309091 0 5.436509-3.705018 9.309091-8.880873 9.309091h-112.565527c-5.175855 0-8.880873-3.872582-8.880873-9.309091 0-5.436509 3.705018-9.309091 8.880873-9.309091h112.565527z" fill="#CCCCCC" p-id="7716"></path></svg>