<?xml version="1.0" standalone="no"?><!DOCTYPE svg PUBLIC "-//W3C//DTD SVG 1.1//EN" "http://www.w3.org/Graphics/SVG/1.1/DTD/svg11.dtd"><svg t="1610345213488" class="icon" viewBox="0 0 1840 1024" version="1.1" xmlns="http://www.w3.org/2000/svg" p-id="4673" width="64" height="64" xmlns:xlink="http://www.w3.org/1999/xlink"><defs><style type="text/css"></style></defs><path d="M1038.957303 512.460225c2.761348 64.431461-54.996854 120.808989-121.269213 120.348764-63.971236-0.460225-119.888539-55.457079-119.888539-121.269214 0.230112-63.741124 55.226966-121.499326 123.110112-120.348764 62.820674 0.920449 121.039101 55.226966 118.04764 121.269214z" fill="#4284F3" p-id="4674"></path><path d="M1229.260225 631.888539c2.071011 28.994157-1.840899 62.820674-18.408989 94.346068-26.462921 50.164494-67.653034 81.229663-123.570337 91.354606-30.374831 5.522697-61.209888 1.380674-91.814832 2.531236-5.522697 0.230112-7.363596-2.071011-7.363595-7.593707 0.230112-23.701573 0.230112-47.633258 0-71.334832 0-6.213034 2.531236-7.82382 8.284045-7.82382 19.559551 0.230112 39.119101 0.460225 58.678652 0 42.570787-1.150562 73.17573-24.39191 85.141573-65.35191 4.602247-15.877753 2.301124-32.675955 2.761348-49.013933 0.230112-10.355056 0.230112-20.710112-0.230112-31.065168-0.230112-6.213034 1.380674-9.204494 8.284044-8.974382 23.471461 0.230112 46.712809 0.230112 70.18427 0 6.903371 0 8.284045 2.991461 8.284045 8.974382-0.460225 12.65618-0.230112 25.31236-0.230112 43.95146z" fill="#33A752" p-id="4675"></path><path d="M1041.258427 201.578427c28.764045-2.301124 62.360449 1.380674 93.425618 18.178876 58.908764 31.755506 91.124494 80.999551 94.115955 148.422472 0.920449 21.400449 0 42.800899 0.230112 64.431461 0.230112 7.363596-1.840899 10.124944-9.664719 10.124944-22.090787-0.460225-44.411685-0.460225-66.732584 0-7.133483 0-9.894831-1.380674-9.434607-9.434607 0.690337-19.789663-0.460225-39.809438-0.230112-59.599101 0.460225-44.181573-37.04809-87.442697-93.65573-86.292135-17.258427 0.460225-34.516854-0.230112-51.775281 0.230112-6.903371 0.230112-9.434607-1.840899-9.434607-8.974382 0.230112-22.551011 0.460225-45.102022 0-67.883146-0.230112-7.363596 2.991461-9.204494 9.434607-8.974382 12.65618 0.230112 25.31236-0.230112 43.721348-0.230112z" fill="#FABB04" p-id="4676"></path><path d="M798.259775 822.651685c-29.454382 2.071011-63.971236-1.380674-95.726741-18.408988-59.368989-31.985618-91.584719-81.92-94.346068-149.573034-0.920449-21.400449 0-42.800899-0.230112-64.431461 0-6.903371 2.071011-9.204494 9.204494-9.204494 22.551011 0.460225 45.102022 0.460225 67.883146 0 7.593708-0.230112 10.124944 2.301124 9.894832 9.894831-0.460225 18.869213 0.690337 37.508315-0.230113 56.377528-2.071011 48.553708 40.96 90.894382 88.363147 88.823371 18.639101-0.920449 37.508315 0.230112 56.377528-0.230112 8.284045-0.230112 10.585169 2.761348 10.355056 10.585168-0.460225 22.320899-0.460225 44.411685 0 66.732585 0.230112 7.82382-2.531236 10.124944-9.894832 9.664719-11.965843-0.690337-23.931685-0.230112-41.650337-0.230113z" fill="#4284F3" p-id="4677"></path><path d="M847.733933 203.189213c2.761348 1.840899 1.610787 4.83236 1.610786 7.363596 0 22.320899-0.230112 44.411685 0.230112 66.732584 0 7.593708-1.380674 10.815281-10.124943 10.355056-17.258427-0.920449-34.516854 0-51.775281-0.460224-54.536629-1.380674-95.036404 39.119101-93.655731 93.425618 0.460225 17.948764 0 36.12764 0.230113 54.076404 0 5.292584-1.380674 7.82382-6.903371 7.82382-25.31236-0.230112-50.624719-0.230112-75.937079-0.230112-0.460225 0-1.150562-0.920449-1.610786-1.380674 11.73573-3.221573 23.471461-0.920449 35.207191-1.380674 13.806742-0.460225 27.843596 0 41.650337-0.230113h-70.18427c-4.142022 0-5.062472-2.531236-5.062472-5.982921v-70.414382 66.962697c0 3.681798 1.380674 7.593708-1.380674 11.045393-0.230112-0.230112-0.920449-0.460225-0.920449-0.690337-2.071011-54.076404-7.363596-108.843146 24.622022-157.626966 34.746966-52.925843 83.530787-80.309213 146.811686-81.229663 18.639101-0.230112 37.508315-0.230112 56.147415 0 3.91191 0 8.053933-1.610787 11.045394 1.840898-9.204494 3.221573-18.869213 1.150562-28.303821 1.380675-17.028315 0.460225-34.286742 0-51.315056 0.230112h71.104719c3.681798 0 6.903371 0.230112 6.903371 5.292584-0.230112 23.241348 0.230112 46.482697 0 69.954158 0.230112-21.400449 0-43.031011 0.230112-64.431461 0-4.142022-1.610787-8.514157 1.380675-12.426068z" fill="#E94335" p-id="4678"></path><path d="M610.948315 663.18382v-77.317753h1.150561v77.547866c-0.460225 0-0.920449-0.230112-1.150561-0.230113zM844.972584 819.660225h-77.317753v-0.92045H844.51236c0 0.460225 0.230112 0.690337 0.460224 0.92045z" fill="#016CF1" p-id="4679"></path><path d="M847.733933 203.189213v78.00809h-2.761349c0-20.940225-0.690337-41.880449 0.230113-62.820674 0.460225-10.355056-2.761348-13.116404-12.886293-12.65618-21.630562 0.690337-43.491236 0.230112-65.35191-2.531236zM610.027865 440.895281v-80.309214h2.531236v57.067866c0 20.710112 0 20.710112 20.48 20.710112H688.035955v2.531236h-78.00809z" fill="#E71200" p-id="4680"></path></svg>