<?xml version="1.0" standalone="no"?><!DOCTYPE svg PUBLIC "-//W3C//DTD SVG 1.1//EN" "http://www.w3.org/Graphics/SVG/1.1/DTD/svg11.dtd"><svg t="1613963689760" class="icon" viewBox="0 0 1024 1024" version="1.1" xmlns="http://www.w3.org/2000/svg" p-id="2781" width="16" height="16" xmlns:xlink="http://www.w3.org/1999/xlink"><defs><style type="text/css"></style></defs><path d="M944.853 476.203c18.176-19.584 24.064-46.507 15.83-71.936s-28.886-43.691-55.083-48.854l-210.688-41.642a21.632 21.632 0 0 1-14.677-10.667L575.53 115.541C562.475 92.245 538.709 78.293 512 78.293s-50.475 13.91-63.488 37.291l-104.704 187.52a21.888 21.888 0 0 1-14.677 10.667L118.4 355.413c-26.197 5.206-46.848 23.467-55.083 48.896s-2.346 52.352 15.83 71.936l146.005 157.568a21.547 21.547 0 0 1 5.59 17.195l-25.515 213.29a71.893 71.893 0 0 0 29.482 67.5 72.107 72.107 0 0 0 73.259 7.167l194.944-90.154a21.632 21.632 0 0 1 18.09 0l194.945 90.154a71.85 71.85 0 0 0 73.258-7.168 71.68 71.68 0 0 0 29.483-67.498L793.173 651.05a21.333 21.333 0 0 1 5.632-17.238l146.048-157.61zM761.344 598.955a72.619 72.619 0 0 0-18.901 58.112l25.514 213.29a21.248 21.248 0 0 1-8.746 20.011 21.248 21.248 0 0 1-21.675 2.133l-194.944-90.154a72.49 72.49 0 0 0-61.099 0L286.55 892.5a21.163 21.163 0 0 1-21.674-2.133 21.248 21.248 0 0 1-8.747-20.01l25.515-213.334a72.704 72.704 0 0 0-18.859-58.027L116.821 441.472a21.035 21.035 0 0 1-4.693-21.333 21.077 21.077 0 0 1 16.299-14.464l210.688-41.643a72.73 72.73 0 0 0 49.322-35.968l104.704-187.563c5.59-9.898 15.062-11.008 18.859-11.008s13.27 1.067 18.816 11.051L635.52 328.107c10.41 18.688 28.416 31.744 49.408 35.882l210.688 41.686a21.12 21.12 0 0 1 16.299 14.421 21.248 21.248 0 0 1-4.694 21.333L761.344 598.955z" fill="#D81E06" p-id="2782"></path></svg>