<?xml version="1.0" standalone="no"?><!DOCTYPE svg PUBLIC "-//W3C//DTD SVG 1.1//EN" "http://www.w3.org/Graphics/SVG/1.1/DTD/svg11.dtd"><svg t="1613968432515" class="icon" viewBox="0 0 1024 1024" version="1.1" xmlns="http://www.w3.org/2000/svg" p-id="5504" width="16" height="16" xmlns:xlink="http://www.w3.org/1999/xlink"><defs><style type="text/css"></style></defs><path d="M853.333333 312.888889V853.333333a113.777778 113.777778 0 0 1-113.777777 113.777778H284.444444a113.777778 113.777778 0 0 1-113.777777-113.777778V312.888889a28.444444 28.444444 0 0 1 56.888889 0V853.333333a56.888889 56.888889 0 0 0 56.888888 56.888889h455.111112a56.888889 56.888889 0 0 0 56.888888-56.888889V312.888889a28.444444 28.444444 0 1 1 56.888889 0zM426.666667 341.333333a28.444444 28.444444 0 0 1 28.444444 28.444445v455.111111a28.444444 28.444444 0 1 1-56.888889 0v-455.111111a28.444444 28.444444 0 0 1 28.444445-28.444445z m170.666666 0a28.444444 28.444444 0 0 1 28.444445 28.444445v455.111111a28.444444 28.444444 0 1 1-56.888889 0v-455.111111a28.444444 28.444444 0 0 1 28.444444-28.444445z m-2.161777-227.555555H416.995556L315.335111 220.046222a25.941333 25.941333 0 0 1-18.318222 7.736889h-213.333333c-14.791111 0-26.794667-12.743111-26.794667-28.444444s11.946667-28.444444 26.737778-28.444445h202.808889L387.982222 64.625778A25.941333 25.941333 0 0 1 406.357333 56.888889h199.907556c7.111111 0 13.880889 3.015111 18.887111 8.305778l113.550222 105.699555h201.614222c14.791111 0 26.794667 12.743111 26.794667 28.444445s-11.946667 28.444444-26.737778 28.444444h-212.764444a25.998222 25.998222 0 0 1-18.887111-8.305778L595.171556 113.777778z" p-id="5505" fill="#FF4555"></path></svg>