<?xml version="1.0" standalone="no"?><!DOCTYPE svg PUBLIC "-//W3C//DTD SVG 1.1//EN" "http://www.w3.org/Graphics/SVG/1.1/DTD/svg11.dtd"><svg t="1613712259619" class="icon" viewBox="0 0 1024 1024" version="1.1" xmlns="http://www.w3.org/2000/svg" p-id="8332" width="16" height="16" xmlns:xlink="http://www.w3.org/1999/xlink"><defs><style type="text/css"></style></defs><path d="M981.82144 348.17024L815.81056 99.70688c-20.33664-29.93152-53.63712-48.00512-90.34752-48.00512H297.984a109.43488 109.43488 0 0 0-90.34752 48.00512L41.61536 348.17024c-12.98432 19.2-19.2 41.78944-18.0736 65.50528 1.1264 23.15264 9.60512 45.17888 24.27904 63.24224l380.03712 467.5584c20.89984 25.40544 51.39456 40.09984 84.14208 40.09984 32.75776 0 63.24224-14.6944 84.14208-40.09984l380.01664-467.5584a108.3392 108.3392 0 0 0 24.28928-63.24224c0.57344-23.71584-5.64224-46.30528-18.62656-65.50528z m-53.64736 81.31584l-387.3792 476.60032c-6.76864 8.46848-17.50016 13.54752-28.79488 13.54752s-21.46304-5.07904-28.79488-13.54752L95.82592 429.48608a36.4544 36.4544 0 0 1-2.2528-43.48928l168.83712-253.5424a36.53632 36.53632 0 0 1 30.49472-16.384h437.06368c12.43136 0 23.72608 6.20544 30.50496 16.384L929.87392 385.4336a37.3248 37.3248 0 0 1-1.69984 44.05248z" fill="#00BC71" p-id="8333"></path><path d="M672.94208 392.22272a34.33472 34.33472 0 0 0-48.55808 5.65248l-111.81056 139.4688-111.80032-139.4688c-11.85792-14.68416-33.88416-17.5104-48.55808-5.65248-14.68416 11.85792-17.5104 33.88416-5.65248 48.55808l138.91584 173.3632a33.97632 33.97632 0 0 0 27.09504 12.99456 33.98656 33.98656 0 0 0 27.11552-12.99456l138.9056-173.3632c11.84768-14.68416 9.58464-36.13696-5.65248-48.55808z" fill="#00BC71" p-id="8334"></path></svg>