<?xml version="1.0" standalone="no"?><!DOCTYPE svg PUBLIC "-//W3C//DTD SVG 1.1//EN" "http://www.w3.org/Graphics/SVG/1.1/DTD/svg11.dtd"><svg t="1613712170795" class="icon" viewBox="0 0 1024 1024" version="1.1" xmlns="http://www.w3.org/2000/svg" p-id="7515" width="16" height="16" xmlns:xlink="http://www.w3.org/1999/xlink"><defs><style type="text/css"></style></defs><path d="M1002.66752 324.064c-22.784-26.048-163.968-192.768-217.888-250.88-16.64-17.984-28.992-30.4-54.464-31.392-25.44-0.928-435.744 0-435.744 0-14.016 0-32.064 3.264-55.264 30.4C185.25952 135.52 63.33952 275.168 22.21952 324.064c-27.872 32.256-31.392 78.176 0 125.408 66.816 77.824 250.88 288.96 435.744 501.76 26.272 30.272 42.752 31.392 54.464 31.392 11.424 0 27.648-0.544 54.464-31.392 183.072-210.784 358.848-412.288 435.68-501.76 25.984-31.328 30.88-88.256 0.064-125.408z m-54.432 94.08c-61.408 71.552-245.856 276.544-392 445.376-21.376 24.64-34.336 25.056-43.424 25.056-9.28 0-22.464-0.928-43.424-25.056C321.86752 693.152 130.12352 480.416 76.81152 418.144c-14.912-15.232-14.56-40.832 0-62.752 32.736-39.136 147.264-169.088 190.56-219.488 32.128-37.472 60.32-31.392 71.552-31.392h347.68c41.76 0 51.648 9.216 70.944 31.392l190.688 219.488c16.032 22.912 11.232 44.576 0 62.752z m-146.528-62.752h-103.168c-5.664 0-13.888 0.864-20.704 11.488l-165.024 232.64c-0.128 0.128-0.192 0.544-0.32 0.8v-0.864l-165.28-232.512c-6.816-10.688-14.976-11.488-20.64-11.488H223.27552c-5.664 0-10.368 5.152-10.368 11.488v57.248c0 6.336 4.608 11.488 10.368 11.488h9.952c14.912 0 13.76 2.816 20.992 11.488 51.648 70.208 258.24 347.168 258.24 347.168v-1.216c0.128 0.416 0.192 0.864 0.32 1.216 0 0 206.304-276.992 258.016-347.168 7.136-8.608 6.144-11.488 20.928-11.488h9.888c5.664 0 10.304-5.216 10.304-11.488v-57.248c0.128-6.4-4.48-11.552-10.144-11.552z" p-id="7516" fill="#707070"></path></svg>